<mxfile host="app.diagrams.net" agent="Mozilla/5.0 (Macintosh; Intel Mac OS X 10_15_7) AppleWebKit/537.36 (KHTML, like Gecko) Chrome/130.0.0.0 Safari/537.36" version="24.8.6">
  <diagram id="C5RBs43oDa-KdzZeNtuy" name="Page-1">
    <mxGraphModel dx="4584" dy="4716" grid="1" gridSize="10" guides="1" tooltips="1" connect="1" arrows="1" fold="1" page="1" pageScale="1" pageWidth="827" pageHeight="1169" math="0" shadow="0">
      <root>
        <mxCell id="WIyWlLk6GJQsqaUBKTNV-0" />
        <mxCell id="WIyWlLk6GJQsqaUBKTNV-1" parent="WIyWlLk6GJQsqaUBKTNV-0" />
        <mxCell id="IKxwJvnmG1oCO0FO8SN4-0" value="Registration and Login" style="whiteSpace=wrap;strokeWidth=2;fillColor=#000000;fontColor=#FFFFFF;fontStyle=1" vertex="1" parent="WIyWlLk6GJQsqaUBKTNV-1">
          <mxGeometry x="132" y="80" width="219" height="49" as="geometry" />
        </mxCell>
        <mxCell id="IKxwJvnmG1oCO0FO8SN4-1" value="User Role?" style="rhombus;strokeWidth=2;whiteSpace=wrap;" vertex="1" parent="WIyWlLk6GJQsqaUBKTNV-1">
          <mxGeometry x="180" y="223" width="122" height="122" as="geometry" />
        </mxCell>
        <mxCell id="IKxwJvnmG1oCO0FO8SN4-2" value="Access Full App" style="whiteSpace=wrap;strokeWidth=2;" vertex="1" parent="WIyWlLk6GJQsqaUBKTNV-1">
          <mxGeometry x="40" y="499" width="170" height="49" as="geometry" />
        </mxCell>
        <mxCell id="IKxwJvnmG1oCO0FO8SN4-3" value="Access Single Team" style="whiteSpace=wrap;strokeWidth=2;" vertex="1" parent="WIyWlLk6GJQsqaUBKTNV-1">
          <mxGeometry x="260" y="499" width="197" height="49" as="geometry" />
        </mxCell>
        <mxCell id="IKxwJvnmG1oCO0FO8SN4-4" value="Invite Only - Limited Access" style="whiteSpace=wrap;strokeWidth=2;" vertex="1" parent="WIyWlLk6GJQsqaUBKTNV-1">
          <mxGeometry x="506" y="499" width="259" height="49" as="geometry" />
        </mxCell>
        <mxCell id="IKxwJvnmG1oCO0FO8SN4-5" value="Create Team" style="whiteSpace=wrap;strokeWidth=2;fillColor=#000000;fontColor=#FFFFFF;fontStyle=1" vertex="1" parent="WIyWlLk6GJQsqaUBKTNV-1">
          <mxGeometry x="1175" y="60" width="150" height="49" as="geometry" />
        </mxCell>
        <mxCell id="IKxwJvnmG1oCO0FO8SN4-6" value="User Role?" style="rhombus;strokeWidth=2;whiteSpace=wrap;" vertex="1" parent="WIyWlLk6GJQsqaUBKTNV-1">
          <mxGeometry x="1189" y="203" width="122" height="122" as="geometry" />
        </mxCell>
        <mxCell id="IKxwJvnmG1oCO0FO8SN4-7" value="Create Multiple Teams" style="whiteSpace=wrap;strokeWidth=2;" vertex="1" parent="WIyWlLk6GJQsqaUBKTNV-1">
          <mxGeometry x="1015" y="479" width="220" height="49" as="geometry" />
        </mxCell>
        <mxCell id="IKxwJvnmG1oCO0FO8SN4-8" value="Create One Team" style="whiteSpace=wrap;strokeWidth=2;" vertex="1" parent="WIyWlLk6GJQsqaUBKTNV-1">
          <mxGeometry x="1284" y="479" width="183" height="49" as="geometry" />
        </mxCell>
        <mxCell id="IKxwJvnmG1oCO0FO8SN4-9" value="Redirect to Team Details Page" style="whiteSpace=wrap;strokeWidth=2;" vertex="1" parent="WIyWlLk6GJQsqaUBKTNV-1">
          <mxGeometry x="1132" y="665" width="236" height="67" as="geometry" />
        </mxCell>
        <mxCell id="IKxwJvnmG1oCO0FO8SN4-10" value="Add Members" style="whiteSpace=wrap;strokeWidth=2;" vertex="1" parent="WIyWlLk6GJQsqaUBKTNV-1">
          <mxGeometry x="1172" y="841" width="156" height="49" as="geometry" />
        </mxCell>
        <mxCell id="IKxwJvnmG1oCO0FO8SN4-11" value="Add Members" style="whiteSpace=wrap;strokeWidth=2;fillColor=#000000;fontColor=#FFFFFF;fontStyle=1" vertex="1" parent="WIyWlLk6GJQsqaUBKTNV-1">
          <mxGeometry x="2011" y="50" width="156" height="49" as="geometry" />
        </mxCell>
        <mxCell id="IKxwJvnmG1oCO0FO8SN4-12" value="Enter Member Details" style="whiteSpace=wrap;strokeWidth=2;" vertex="1" parent="WIyWlLk6GJQsqaUBKTNV-1">
          <mxGeometry x="1982" y="230" width="215" height="49" as="geometry" />
        </mxCell>
        <mxCell id="IKxwJvnmG1oCO0FO8SN4-13" value="Save Member" style="whiteSpace=wrap;strokeWidth=2;" vertex="1" parent="WIyWlLk6GJQsqaUBKTNV-1">
          <mxGeometry x="2012" y="469" width="155" height="49" as="geometry" />
        </mxCell>
        <mxCell id="IKxwJvnmG1oCO0FO8SN4-14" value="User Role?" style="rhombus;strokeWidth=2;whiteSpace=wrap;" vertex="1" parent="WIyWlLk6GJQsqaUBKTNV-1">
          <mxGeometry x="1928" y="627" width="122" height="122" as="geometry" />
        </mxCell>
        <mxCell id="IKxwJvnmG1oCO0FO8SN4-15" value="Assign Admin Rights" style="whiteSpace=wrap;strokeWidth=2;" vertex="1" parent="WIyWlLk6GJQsqaUBKTNV-1">
          <mxGeometry x="1755" y="831" width="201" height="49" as="geometry" />
        </mxCell>
        <mxCell id="IKxwJvnmG1oCO0FO8SN4-16" value="Manage Members in One Team" style="whiteSpace=wrap;strokeWidth=2;" vertex="1" parent="WIyWlLk6GJQsqaUBKTNV-1">
          <mxGeometry x="2147" y="823" width="233" height="67" as="geometry" />
        </mxCell>
        <mxCell id="IKxwJvnmG1oCO0FO8SN4-17" value="Make Member a Viewer" style="whiteSpace=wrap;strokeWidth=2;" vertex="1" parent="WIyWlLk6GJQsqaUBKTNV-1">
          <mxGeometry x="1876" y="939" width="226" height="49" as="geometry" />
        </mxCell>
        <mxCell id="IKxwJvnmG1oCO0FO8SN4-18" value="Send Invitation Email to Viewer" style="whiteSpace=wrap;strokeWidth=2;" vertex="1" parent="WIyWlLk6GJQsqaUBKTNV-1">
          <mxGeometry x="1873" y="1038" width="232" height="67" as="geometry" />
        </mxCell>
        <mxCell id="IKxwJvnmG1oCO0FO8SN4-19" value="Remove Member" style="whiteSpace=wrap;strokeWidth=2;" vertex="1" parent="WIyWlLk6GJQsqaUBKTNV-1">
          <mxGeometry x="2100" y="664" width="178" height="49" as="geometry" />
        </mxCell>
        <mxCell id="IKxwJvnmG1oCO0FO8SN4-20" value="Manage Multiple Teams" style="whiteSpace=wrap;strokeWidth=2;fillColor=#000000;fontColor=#FFFFFF;fontStyle=1" vertex="1" parent="WIyWlLk6GJQsqaUBKTNV-1">
          <mxGeometry x="2769" y="90" width="225" height="49" as="geometry" />
        </mxCell>
        <mxCell id="IKxwJvnmG1oCO0FO8SN4-21" value="User Role?" style="rhombus;strokeWidth=2;whiteSpace=wrap;" vertex="1" parent="WIyWlLk6GJQsqaUBKTNV-1">
          <mxGeometry x="2821" y="233" width="122" height="122" as="geometry" />
        </mxCell>
        <mxCell id="IKxwJvnmG1oCO0FO8SN4-22" value="View and Manage All Teams" style="whiteSpace=wrap;strokeWidth=2;" vertex="1" parent="WIyWlLk6GJQsqaUBKTNV-1">
          <mxGeometry x="2620" y="509" width="255" height="49" as="geometry" />
        </mxCell>
        <mxCell id="IKxwJvnmG1oCO0FO8SN4-23" value="View and Manage One Team" style="whiteSpace=wrap;strokeWidth=2;" vertex="1" parent="WIyWlLk6GJQsqaUBKTNV-1">
          <mxGeometry x="2926" y="509" width="259" height="49" as="geometry" />
        </mxCell>
        <mxCell id="IKxwJvnmG1oCO0FO8SN4-24" value="Access Team Details" style="whiteSpace=wrap;strokeWidth=2;" vertex="1" parent="WIyWlLk6GJQsqaUBKTNV-1">
          <mxGeometry x="2780" y="704" width="203" height="49" as="geometry" />
        </mxCell>
        <mxCell id="IKxwJvnmG1oCO0FO8SN4-25" value="View Member Details" style="whiteSpace=wrap;strokeWidth=2;fillColor=#000000;fontColor=#FFFFFF;fontStyle=1" vertex="1" parent="WIyWlLk6GJQsqaUBKTNV-1">
          <mxGeometry x="3646" y="90" width="210" height="49" as="geometry" />
        </mxCell>
        <mxCell id="IKxwJvnmG1oCO0FO8SN4-26" value="View Member Profile" style="whiteSpace=wrap;strokeWidth=2;" vertex="1" parent="WIyWlLk6GJQsqaUBKTNV-1">
          <mxGeometry x="3647" y="270" width="208" height="49" as="geometry" />
        </mxCell>
        <mxCell id="IKxwJvnmG1oCO0FO8SN4-27" value="User Role?" style="rhombus;strokeWidth=2;whiteSpace=wrap;" vertex="1" parent="WIyWlLk6GJQsqaUBKTNV-1">
          <mxGeometry x="3690" y="472" width="122" height="122" as="geometry" />
        </mxCell>
        <mxCell id="IKxwJvnmG1oCO0FO8SN4-28" value="Edit All Member Details" style="whiteSpace=wrap;strokeWidth=2;" vertex="1" parent="WIyWlLk6GJQsqaUBKTNV-1">
          <mxGeometry x="3380" y="704" width="227" height="49" as="geometry" />
        </mxCell>
        <mxCell id="IKxwJvnmG1oCO0FO8SN4-29" value="Edit Members in Their Team" style="whiteSpace=wrap;strokeWidth=2;" vertex="1" parent="WIyWlLk6GJQsqaUBKTNV-1">
          <mxGeometry x="3657" y="704" width="259" height="49" as="geometry" />
        </mxCell>
        <mxCell id="IKxwJvnmG1oCO0FO8SN4-30" value="View Own Profile Only" style="whiteSpace=wrap;strokeWidth=2;" vertex="1" parent="WIyWlLk6GJQsqaUBKTNV-1">
          <mxGeometry x="3812" y="970" width="219" height="49" as="geometry" />
        </mxCell>
        <mxCell id="IKxwJvnmG1oCO0FO8SN4-31" value="Edit Goals, Ratings, Feedback" style="whiteSpace=wrap;strokeWidth=2;" vertex="1" parent="WIyWlLk6GJQsqaUBKTNV-1">
          <mxGeometry x="3515" y="863" width="201" height="67" as="geometry" />
        </mxCell>
        <mxCell id="IKxwJvnmG1oCO0FO8SN4-32" value="Settings and Initiatives" style="whiteSpace=wrap;strokeWidth=2;fillColor=#000000;fontColor=#FFFFFF;fontStyle=1" vertex="1" parent="WIyWlLk6GJQsqaUBKTNV-1">
          <mxGeometry x="4501" y="111" width="224" height="49" as="geometry" />
        </mxCell>
        <mxCell id="IKxwJvnmG1oCO0FO8SN4-33" value="User Role?" style="rhombus;strokeWidth=2;whiteSpace=wrap;" vertex="1" parent="WIyWlLk6GJQsqaUBKTNV-1">
          <mxGeometry x="4552" y="254" width="122" height="122" as="geometry" />
        </mxCell>
        <mxCell id="IKxwJvnmG1oCO0FO8SN4-34" value="Manage All Initiatives" style="whiteSpace=wrap;strokeWidth=2;" vertex="1" parent="WIyWlLk6GJQsqaUBKTNV-1">
          <mxGeometry x="4190" y="530" width="212" height="49" as="geometry" />
        </mxCell>
        <mxCell id="IKxwJvnmG1oCO0FO8SN4-35" value="Manage Initiatives for One Team" style="whiteSpace=wrap;strokeWidth=2;" vertex="1" parent="WIyWlLk6GJQsqaUBKTNV-1">
          <mxGeometry x="4453" y="521" width="248" height="67" as="geometry" />
        </mxCell>
        <mxCell id="IKxwJvnmG1oCO0FO8SN4-36" value="View Profile Only" style="whiteSpace=wrap;strokeWidth=2;" vertex="1" parent="WIyWlLk6GJQsqaUBKTNV-1">
          <mxGeometry x="4751" y="530" width="183" height="49" as="geometry" />
        </mxCell>
        <mxCell id="IKxwJvnmG1oCO0FO8SN4-37" value="Landing Page Actions" style="whiteSpace=wrap;strokeWidth=2;fillColor=#000000;fontColor=#FFFFFF;fontStyle=1" vertex="1" parent="WIyWlLk6GJQsqaUBKTNV-1">
          <mxGeometry x="5304" y="111" width="210" height="49" as="geometry" />
        </mxCell>
        <mxCell id="IKxwJvnmG1oCO0FO8SN4-38" value="Teams and Members Created?" style="rhombus;strokeWidth=2;whiteSpace=wrap;" vertex="1" parent="WIyWlLk6GJQsqaUBKTNV-1">
          <mxGeometry x="5304" y="210" width="210" height="210" as="geometry" />
        </mxCell>
        <mxCell id="IKxwJvnmG1oCO0FO8SN4-39" value="Display Dashboard and Team Options" style="whiteSpace=wrap;strokeWidth=2;" vertex="1" parent="WIyWlLk6GJQsqaUBKTNV-1">
          <mxGeometry x="5126" y="521" width="221" height="67" as="geometry" />
        </mxCell>
        <mxCell id="IKxwJvnmG1oCO0FO8SN4-40" value="Add Performance Rating and Feedback" style="whiteSpace=wrap;strokeWidth=2;" vertex="1" parent="WIyWlLk6GJQsqaUBKTNV-1">
          <mxGeometry x="5120" y="716" width="233" height="67" as="geometry" />
        </mxCell>
        <mxCell id="IKxwJvnmG1oCO0FO8SN4-41" value="Prompt to Create Team" style="whiteSpace=wrap;strokeWidth=2;" vertex="1" parent="WIyWlLk6GJQsqaUBKTNV-1">
          <mxGeometry x="5397" y="530" width="226" height="49" as="geometry" />
        </mxCell>
        <mxCell id="IKxwJvnmG1oCO0FO8SN4-42" value="" style="curved=1;startArrow=none;endArrow=block;exitX=0.5;exitY=1;entryX=0.5;entryY=0;rounded=0;" edge="1" parent="WIyWlLk6GJQsqaUBKTNV-1" source="IKxwJvnmG1oCO0FO8SN4-0" target="IKxwJvnmG1oCO0FO8SN4-1">
          <mxGeometry relative="1" as="geometry">
            <Array as="points" />
          </mxGeometry>
        </mxCell>
        <mxCell id="IKxwJvnmG1oCO0FO8SN4-43" value="Teams Admin" style="curved=1;startArrow=none;endArrow=block;exitX=0.09;exitY=1;entryX=0.5;entryY=0;rounded=0;" edge="1" parent="WIyWlLk6GJQsqaUBKTNV-1" source="IKxwJvnmG1oCO0FO8SN4-1" target="IKxwJvnmG1oCO0FO8SN4-2">
          <mxGeometry relative="1" as="geometry">
            <Array as="points">
              <mxPoint x="125" y="426" />
            </Array>
          </mxGeometry>
        </mxCell>
        <mxCell id="IKxwJvnmG1oCO0FO8SN4-44" value="Team Admin" style="curved=1;startArrow=none;endArrow=block;exitX=0.91;exitY=1;entryX=0.5;entryY=0;rounded=0;" edge="1" parent="WIyWlLk6GJQsqaUBKTNV-1" source="IKxwJvnmG1oCO0FO8SN4-1" target="IKxwJvnmG1oCO0FO8SN4-3">
          <mxGeometry relative="1" as="geometry">
            <Array as="points">
              <mxPoint x="358" y="426" />
            </Array>
          </mxGeometry>
        </mxCell>
        <mxCell id="IKxwJvnmG1oCO0FO8SN4-45" value="Viewer" style="curved=1;startArrow=none;endArrow=block;exitX=1;exitY=0.68;entryX=0.5;entryY=0;rounded=0;" edge="1" parent="WIyWlLk6GJQsqaUBKTNV-1" source="IKxwJvnmG1oCO0FO8SN4-1" target="IKxwJvnmG1oCO0FO8SN4-4">
          <mxGeometry relative="1" as="geometry">
            <Array as="points">
              <mxPoint x="635" y="426" />
            </Array>
          </mxGeometry>
        </mxCell>
        <mxCell id="IKxwJvnmG1oCO0FO8SN4-46" value="" style="curved=1;startArrow=none;endArrow=block;exitX=0.5;exitY=1;entryX=0.5;entryY=0;rounded=0;" edge="1" parent="WIyWlLk6GJQsqaUBKTNV-1" source="IKxwJvnmG1oCO0FO8SN4-5" target="IKxwJvnmG1oCO0FO8SN4-6">
          <mxGeometry relative="1" as="geometry">
            <Array as="points" />
          </mxGeometry>
        </mxCell>
        <mxCell id="IKxwJvnmG1oCO0FO8SN4-47" value="Teams Admin" style="curved=1;startArrow=none;endArrow=block;exitX=0.06;exitY=1;entryX=0.5;entryY=0;rounded=0;" edge="1" parent="WIyWlLk6GJQsqaUBKTNV-1" source="IKxwJvnmG1oCO0FO8SN4-6" target="IKxwJvnmG1oCO0FO8SN4-7">
          <mxGeometry relative="1" as="geometry">
            <Array as="points">
              <mxPoint x="1124" y="406" />
            </Array>
          </mxGeometry>
        </mxCell>
        <mxCell id="IKxwJvnmG1oCO0FO8SN4-48" value="Team Admin" style="curved=1;startArrow=none;endArrow=block;exitX=0.95;exitY=1;entryX=0.5;entryY=0;rounded=0;" edge="1" parent="WIyWlLk6GJQsqaUBKTNV-1" source="IKxwJvnmG1oCO0FO8SN4-6" target="IKxwJvnmG1oCO0FO8SN4-8">
          <mxGeometry relative="1" as="geometry">
            <Array as="points">
              <mxPoint x="1376" y="406" />
            </Array>
          </mxGeometry>
        </mxCell>
        <mxCell id="IKxwJvnmG1oCO0FO8SN4-49" value="" style="curved=1;startArrow=none;endArrow=block;exitX=0.5;exitY=1;entryX=0.32;entryY=0;rounded=0;" edge="1" parent="WIyWlLk6GJQsqaUBKTNV-1" source="IKxwJvnmG1oCO0FO8SN4-7" target="IKxwJvnmG1oCO0FO8SN4-9">
          <mxGeometry relative="1" as="geometry">
            <Array as="points">
              <mxPoint x="1124" y="601" />
            </Array>
          </mxGeometry>
        </mxCell>
        <mxCell id="IKxwJvnmG1oCO0FO8SN4-50" value="" style="curved=1;startArrow=none;endArrow=block;exitX=0.5;exitY=1;entryX=0.68;entryY=0;rounded=0;" edge="1" parent="WIyWlLk6GJQsqaUBKTNV-1" source="IKxwJvnmG1oCO0FO8SN4-8" target="IKxwJvnmG1oCO0FO8SN4-9">
          <mxGeometry relative="1" as="geometry">
            <Array as="points">
              <mxPoint x="1376" y="601" />
            </Array>
          </mxGeometry>
        </mxCell>
        <mxCell id="IKxwJvnmG1oCO0FO8SN4-51" value="" style="curved=1;startArrow=none;endArrow=block;exitX=0.5;exitY=1;entryX=0.5;entryY=0.01;rounded=0;" edge="1" parent="WIyWlLk6GJQsqaUBKTNV-1" source="IKxwJvnmG1oCO0FO8SN4-9" target="IKxwJvnmG1oCO0FO8SN4-10">
          <mxGeometry relative="1" as="geometry">
            <Array as="points" />
          </mxGeometry>
        </mxCell>
        <mxCell id="IKxwJvnmG1oCO0FO8SN4-52" value="" style="curved=1;startArrow=none;endArrow=block;exitX=1;exitY=0.5;entryX=0.5;entryY=-0.01;rounded=0;exitDx=0;exitDy=0;" edge="1" parent="WIyWlLk6GJQsqaUBKTNV-1" source="IKxwJvnmG1oCO0FO8SN4-11" target="IKxwJvnmG1oCO0FO8SN4-12">
          <mxGeometry relative="1" as="geometry">
            <Array as="points" />
          </mxGeometry>
        </mxCell>
        <mxCell id="IKxwJvnmG1oCO0FO8SN4-53" value="" style="curved=1;startArrow=none;endArrow=block;exitX=0.5;exitY=0.99;entryX=0.5;entryY=0;rounded=0;" edge="1" parent="WIyWlLk6GJQsqaUBKTNV-1" source="IKxwJvnmG1oCO0FO8SN4-12" target="IKxwJvnmG1oCO0FO8SN4-13">
          <mxGeometry relative="1" as="geometry">
            <Array as="points" />
          </mxGeometry>
        </mxCell>
        <mxCell id="IKxwJvnmG1oCO0FO8SN4-54" value="" style="curved=1;startArrow=none;endArrow=block;exitX=0.34;exitY=1;entryX=0.5;entryY=0;rounded=0;" edge="1" parent="WIyWlLk6GJQsqaUBKTNV-1" source="IKxwJvnmG1oCO0FO8SN4-13" target="IKxwJvnmG1oCO0FO8SN4-14">
          <mxGeometry relative="1" as="geometry">
            <Array as="points">
              <mxPoint x="1989" y="591" />
            </Array>
          </mxGeometry>
        </mxCell>
        <mxCell id="IKxwJvnmG1oCO0FO8SN4-55" value="Teams Admin" style="curved=1;startArrow=none;endArrow=block;exitX=0;exitY=0.87;entryX=0.5;entryY=0.01;rounded=0;" edge="1" parent="WIyWlLk6GJQsqaUBKTNV-1" source="IKxwJvnmG1oCO0FO8SN4-14" target="IKxwJvnmG1oCO0FO8SN4-15">
          <mxGeometry relative="1" as="geometry">
            <Array as="points">
              <mxPoint x="1856" y="786" />
            </Array>
          </mxGeometry>
        </mxCell>
        <mxCell id="IKxwJvnmG1oCO0FO8SN4-56" value="Team Admin" style="curved=1;startArrow=none;endArrow=block;exitX=1;exitY=0.68;entryX=0.5;entryY=-0.01;rounded=0;" edge="1" parent="WIyWlLk6GJQsqaUBKTNV-1" source="IKxwJvnmG1oCO0FO8SN4-14" target="IKxwJvnmG1oCO0FO8SN4-16">
          <mxGeometry relative="1" as="geometry">
            <Array as="points">
              <mxPoint x="2264" y="786" />
            </Array>
          </mxGeometry>
        </mxCell>
        <mxCell id="IKxwJvnmG1oCO0FO8SN4-57" value="" style="curved=1;startArrow=none;endArrow=block;exitX=0.5;exitY=1.01;entryX=0.21;entryY=0;rounded=0;" edge="1" parent="WIyWlLk6GJQsqaUBKTNV-1" source="IKxwJvnmG1oCO0FO8SN4-15" target="IKxwJvnmG1oCO0FO8SN4-17">
          <mxGeometry relative="1" as="geometry">
            <Array as="points">
              <mxPoint x="1856" y="914" />
            </Array>
          </mxGeometry>
        </mxCell>
        <mxCell id="IKxwJvnmG1oCO0FO8SN4-58" value="" style="curved=1;startArrow=none;endArrow=block;exitX=0.5;exitY=0.99;entryX=1;entryY=0.09;rounded=0;" edge="1" parent="WIyWlLk6GJQsqaUBKTNV-1" source="IKxwJvnmG1oCO0FO8SN4-16" target="IKxwJvnmG1oCO0FO8SN4-17">
          <mxGeometry relative="1" as="geometry">
            <Array as="points">
              <mxPoint x="2264" y="914" />
            </Array>
          </mxGeometry>
        </mxCell>
        <mxCell id="IKxwJvnmG1oCO0FO8SN4-59" value="" style="curved=1;startArrow=none;endArrow=block;exitX=0.5;exitY=1;entryX=0.5;entryY=0;rounded=0;" edge="1" parent="WIyWlLk6GJQsqaUBKTNV-1" source="IKxwJvnmG1oCO0FO8SN4-17" target="IKxwJvnmG1oCO0FO8SN4-18">
          <mxGeometry relative="1" as="geometry">
            <Array as="points" />
          </mxGeometry>
        </mxCell>
        <mxCell id="IKxwJvnmG1oCO0FO8SN4-60" value="" style="curved=1;startArrow=none;endArrow=block;exitX=0.66;exitY=1;entryX=0.5;entryY=0;rounded=0;" edge="1" parent="WIyWlLk6GJQsqaUBKTNV-1" source="IKxwJvnmG1oCO0FO8SN4-13" target="IKxwJvnmG1oCO0FO8SN4-19">
          <mxGeometry relative="1" as="geometry">
            <Array as="points">
              <mxPoint x="2189" y="591" />
            </Array>
          </mxGeometry>
        </mxCell>
        <mxCell id="IKxwJvnmG1oCO0FO8SN4-61" value="" style="curved=1;startArrow=none;endArrow=block;exitX=0.5;exitY=1;entryX=0.5;entryY=0;rounded=0;" edge="1" parent="WIyWlLk6GJQsqaUBKTNV-1" source="IKxwJvnmG1oCO0FO8SN4-20" target="IKxwJvnmG1oCO0FO8SN4-21">
          <mxGeometry relative="1" as="geometry">
            <Array as="points" />
          </mxGeometry>
        </mxCell>
        <mxCell id="IKxwJvnmG1oCO0FO8SN4-62" value="Teams Admin" style="curved=1;startArrow=none;endArrow=block;exitX=0.03;exitY=1;entryX=0.5;entryY=0;rounded=0;" edge="1" parent="WIyWlLk6GJQsqaUBKTNV-1" source="IKxwJvnmG1oCO0FO8SN4-21" target="IKxwJvnmG1oCO0FO8SN4-22">
          <mxGeometry relative="1" as="geometry">
            <Array as="points">
              <mxPoint x="2748" y="436" />
            </Array>
          </mxGeometry>
        </mxCell>
        <mxCell id="IKxwJvnmG1oCO0FO8SN4-63" value="Team Admin" style="curved=1;startArrow=none;endArrow=block;exitX=1;exitY=0.91;entryX=0.5;entryY=0;rounded=0;" edge="1" parent="WIyWlLk6GJQsqaUBKTNV-1" source="IKxwJvnmG1oCO0FO8SN4-21" target="IKxwJvnmG1oCO0FO8SN4-23">
          <mxGeometry relative="1" as="geometry">
            <Array as="points">
              <mxPoint x="3055" y="436" />
            </Array>
          </mxGeometry>
        </mxCell>
        <mxCell id="IKxwJvnmG1oCO0FO8SN4-64" value="" style="curved=1;startArrow=none;endArrow=block;exitX=0.5;exitY=1;entryX=0.34;entryY=0;rounded=0;" edge="1" parent="WIyWlLk6GJQsqaUBKTNV-1" source="IKxwJvnmG1oCO0FO8SN4-22" target="IKxwJvnmG1oCO0FO8SN4-24">
          <mxGeometry relative="1" as="geometry">
            <Array as="points">
              <mxPoint x="2748" y="631" />
            </Array>
          </mxGeometry>
        </mxCell>
        <mxCell id="IKxwJvnmG1oCO0FO8SN4-65" value="" style="curved=1;startArrow=none;endArrow=block;exitX=0.5;exitY=1;entryX=0.72;entryY=0;rounded=0;" edge="1" parent="WIyWlLk6GJQsqaUBKTNV-1" source="IKxwJvnmG1oCO0FO8SN4-23" target="IKxwJvnmG1oCO0FO8SN4-24">
          <mxGeometry relative="1" as="geometry">
            <Array as="points">
              <mxPoint x="3055" y="631" />
            </Array>
          </mxGeometry>
        </mxCell>
        <mxCell id="IKxwJvnmG1oCO0FO8SN4-66" value="" style="curved=1;startArrow=none;endArrow=block;exitX=0.5;exitY=1;entryX=0.5;entryY=-0.01;rounded=0;" edge="1" parent="WIyWlLk6GJQsqaUBKTNV-1" source="IKxwJvnmG1oCO0FO8SN4-25" target="IKxwJvnmG1oCO0FO8SN4-26">
          <mxGeometry relative="1" as="geometry">
            <Array as="points" />
          </mxGeometry>
        </mxCell>
        <mxCell id="IKxwJvnmG1oCO0FO8SN4-67" value="" style="curved=1;startArrow=none;endArrow=block;exitX=0.5;exitY=0.99;entryX=0.5;entryY=0;rounded=0;" edge="1" parent="WIyWlLk6GJQsqaUBKTNV-1" source="IKxwJvnmG1oCO0FO8SN4-26" target="IKxwJvnmG1oCO0FO8SN4-27">
          <mxGeometry relative="1" as="geometry">
            <Array as="points" />
          </mxGeometry>
        </mxCell>
        <mxCell id="IKxwJvnmG1oCO0FO8SN4-68" value="Teams Admin" style="curved=1;startArrow=none;endArrow=block;exitX=0;exitY=0.69;entryX=0.5;entryY=0;rounded=0;" edge="1" parent="WIyWlLk6GJQsqaUBKTNV-1" source="IKxwJvnmG1oCO0FO8SN4-27" target="IKxwJvnmG1oCO0FO8SN4-28">
          <mxGeometry relative="1" as="geometry">
            <Array as="points">
              <mxPoint x="3494" y="631" />
            </Array>
          </mxGeometry>
        </mxCell>
        <mxCell id="IKxwJvnmG1oCO0FO8SN4-69" value="Team Admin" style="curved=1;startArrow=none;endArrow=block;exitX=0.69;exitY=1;entryX=0.5;entryY=0;rounded=0;" edge="1" parent="WIyWlLk6GJQsqaUBKTNV-1" source="IKxwJvnmG1oCO0FO8SN4-27" target="IKxwJvnmG1oCO0FO8SN4-29">
          <mxGeometry relative="1" as="geometry">
            <Array as="points">
              <mxPoint x="3787" y="631" />
            </Array>
          </mxGeometry>
        </mxCell>
        <mxCell id="IKxwJvnmG1oCO0FO8SN4-70" value="Viewer" style="curved=1;startArrow=none;endArrow=block;exitX=1;exitY=0.6;entryX=0.5;entryY=0;rounded=0;align=left;" edge="1" parent="WIyWlLk6GJQsqaUBKTNV-1">
          <mxGeometry x="-0.429" y="-56" relative="1" as="geometry">
            <Array as="points">
              <mxPoint x="4090" y="640" />
            </Array>
            <mxPoint x="3812.833333333333" y="534.1666666666661" as="sourcePoint" />
            <mxPoint x="3932.499999999999" y="961" as="targetPoint" />
            <mxPoint as="offset" />
          </mxGeometry>
        </mxCell>
        <mxCell id="IKxwJvnmG1oCO0FO8SN4-71" value="" style="curved=1;startArrow=none;endArrow=block;exitX=0.5;exitY=1;entryX=0.21;entryY=-0.01;rounded=0;" edge="1" parent="WIyWlLk6GJQsqaUBKTNV-1" source="IKxwJvnmG1oCO0FO8SN4-28" target="IKxwJvnmG1oCO0FO8SN4-31">
          <mxGeometry relative="1" as="geometry">
            <Array as="points">
              <mxPoint x="3494" y="826" />
            </Array>
          </mxGeometry>
        </mxCell>
        <mxCell id="IKxwJvnmG1oCO0FO8SN4-72" value="" style="curved=1;startArrow=none;endArrow=block;exitX=0.5;exitY=1;entryX=0.91;entryY=-0.01;rounded=0;" edge="1" parent="WIyWlLk6GJQsqaUBKTNV-1" source="IKxwJvnmG1oCO0FO8SN4-29" target="IKxwJvnmG1oCO0FO8SN4-31">
          <mxGeometry relative="1" as="geometry">
            <Array as="points">
              <mxPoint x="3787" y="826" />
            </Array>
          </mxGeometry>
        </mxCell>
        <mxCell id="IKxwJvnmG1oCO0FO8SN4-73" value="" style="curved=1;startArrow=none;endArrow=block;exitX=0.5;exitY=1;entryX=0.5;entryY=0;rounded=0;" edge="1" parent="WIyWlLk6GJQsqaUBKTNV-1" source="IKxwJvnmG1oCO0FO8SN4-32" target="IKxwJvnmG1oCO0FO8SN4-33">
          <mxGeometry relative="1" as="geometry">
            <Array as="points" />
          </mxGeometry>
        </mxCell>
        <mxCell id="IKxwJvnmG1oCO0FO8SN4-74" value="Teams Admin" style="curved=1;startArrow=none;endArrow=block;exitX=0;exitY=0.73;entryX=0.5;entryY=0;rounded=0;" edge="1" parent="WIyWlLk6GJQsqaUBKTNV-1" source="IKxwJvnmG1oCO0FO8SN4-33" target="IKxwJvnmG1oCO0FO8SN4-34">
          <mxGeometry relative="1" as="geometry">
            <Array as="points">
              <mxPoint x="4297" y="457" />
            </Array>
          </mxGeometry>
        </mxCell>
        <mxCell id="IKxwJvnmG1oCO0FO8SN4-75" value="Team Admin" style="curved=1;startArrow=none;endArrow=block;exitX=0.37;exitY=1;entryX=0.5;entryY=0;rounded=0;" edge="1" parent="WIyWlLk6GJQsqaUBKTNV-1" source="IKxwJvnmG1oCO0FO8SN4-33" target="IKxwJvnmG1oCO0FO8SN4-35">
          <mxGeometry relative="1" as="geometry">
            <Array as="points">
              <mxPoint x="4577" y="457" />
            </Array>
          </mxGeometry>
        </mxCell>
        <mxCell id="IKxwJvnmG1oCO0FO8SN4-76" value="Viewer" style="curved=1;startArrow=none;endArrow=block;exitX=1;exitY=0.81;entryX=0.5;entryY=0;rounded=0;" edge="1" parent="WIyWlLk6GJQsqaUBKTNV-1" source="IKxwJvnmG1oCO0FO8SN4-33" target="IKxwJvnmG1oCO0FO8SN4-36">
          <mxGeometry relative="1" as="geometry">
            <Array as="points">
              <mxPoint x="4842" y="457" />
            </Array>
          </mxGeometry>
        </mxCell>
        <mxCell id="IKxwJvnmG1oCO0FO8SN4-77" value="" style="curved=1;startArrow=none;endArrow=block;exitX=0.5;exitY=1;entryX=0.5;entryY=0;rounded=0;" edge="1" parent="WIyWlLk6GJQsqaUBKTNV-1" source="IKxwJvnmG1oCO0FO8SN4-37" target="IKxwJvnmG1oCO0FO8SN4-38">
          <mxGeometry relative="1" as="geometry">
            <Array as="points" />
          </mxGeometry>
        </mxCell>
        <mxCell id="IKxwJvnmG1oCO0FO8SN4-78" value="Yes" style="curved=1;startArrow=none;endArrow=block;exitX=0;exitY=0.91;entryX=0.5;entryY=0;rounded=0;" edge="1" parent="WIyWlLk6GJQsqaUBKTNV-1" source="IKxwJvnmG1oCO0FO8SN4-38" target="IKxwJvnmG1oCO0FO8SN4-39">
          <mxGeometry relative="1" as="geometry">
            <Array as="points">
              <mxPoint x="5236" y="457" />
            </Array>
          </mxGeometry>
        </mxCell>
        <mxCell id="IKxwJvnmG1oCO0FO8SN4-79" value="" style="curved=1;startArrow=none;endArrow=block;exitX=0.5;exitY=0.99;entryX=0.5;entryY=0;rounded=0;" edge="1" parent="WIyWlLk6GJQsqaUBKTNV-1" source="IKxwJvnmG1oCO0FO8SN4-39" target="IKxwJvnmG1oCO0FO8SN4-40">
          <mxGeometry relative="1" as="geometry">
            <Array as="points" />
          </mxGeometry>
        </mxCell>
        <mxCell id="IKxwJvnmG1oCO0FO8SN4-80" value="No" style="curved=1;startArrow=none;endArrow=block;exitX=0.86;exitY=1;entryX=0.5;entryY=0;rounded=0;" edge="1" parent="WIyWlLk6GJQsqaUBKTNV-1" source="IKxwJvnmG1oCO0FO8SN4-38" target="IKxwJvnmG1oCO0FO8SN4-41">
          <mxGeometry relative="1" as="geometry">
            <Array as="points">
              <mxPoint x="5510" y="457" />
            </Array>
          </mxGeometry>
        </mxCell>
      </root>
    </mxGraphModel>
  </diagram>
</mxfile>
